<svg viewBox="0 0 1301 141" xmlns="http://www.w3.org/2000/svg" fill-rule="evenodd" clip-rule="evenodd" stroke-linejoin="round" stroke-miterlimit="2">
  <path d="M5.7063 135.5554c-1.6735 0-3.068-.5578-4.1838-1.6735C.407 133.0452.128 131.6506.128 130.256c0-1.1156.279-2.2313 1.3946-3.6259 2.5103-3.626 435.3935-8.9254 442.9244-13.667 5.8573-3.626 8.3675-11.1568 12.8303-17.0141 6.4151-8.3676 11.9935-15.8985 17.014-22.3136 4.7417-6.4152 8.0887-11.1568 10.0412-14.225h-10.0411c-1.3946 0-2.7892-.5577-3.905-1.6734-1.1156-1.1157-1.6734-2.5103-1.6734-3.9049s.5578-2.7892 1.6735-3.9049c1.1157-.8367 2.5103-1.3946 3.9049-1.3946h16.1773l4.1838-8.9254c2.7892-6.973 5.0205-12.5514 6.973-17.0141 1.6735-4.4627 3.068-8.0887 4.4627-10.8779 1.1157-2.5102 1.9524-4.4627 2.5103-5.8573.5578-1.1157.8367-1.9524 1.1156-2.5102 1.1157-2.2314 2.7892-3.347 5.0206-3.347 1.9524 0 3.347.5578 4.1838 1.3945.8367.8368 1.3946 1.9525 1.3946 3.347v1.6736c-.279.8367-.5579 1.6735-.8368 2.2313-.8367 1.9525-1.9524 4.7417-3.347 8.6465-1.6735 3.9049-3.347 7.8098-5.2995 11.9936-1.9524 4.1838-3.626 8.3676-5.0205 11.7146-1.3946 3.626-2.5103 6.1362-3.0681 7.5308h25.6606c1.3946 0 2.7892.5579 3.9048 1.3946 1.1157 1.1157 1.6735 2.5103 1.6735 3.9049s-.5578 2.7892-1.6735 3.9049c-1.1156 1.1157-2.5102 1.6735-3.9048 1.6735h-29.8444c-1.6736 4.1838-3.347 8.6465-5.0206 13.667-1.9524 5.0206-3.626 10.0412-5.0205 15.3406-1.3946 5.2995-2.7892 10.0411-3.626 14.7828-1.1157 4.7416-1.6735 8.9254-1.6735 12.5513 0 2.2314.2789 4.7417 1.1157 7.252.8367 2.5102 2.2313 3.9048 4.4627 3.9048 1.9524 0 4.4627-1.1156 7.8097-3.626 3.0681-2.5102 6.694-5.5783 10.8779-9.4832 3.9049-3.626 8.0887-7.8097 12.5514-12.5514 4.1838-4.7416 8.3676-9.2043 12.2724-13.667 1.1157-1.1157 2.5103-1.6735 3.9049-1.6735s2.7892.5578 3.9049 1.6735c1.1157 1.1156 1.6735 2.2313 1.6735 3.626 0 1.3945-.5578 2.7891-1.6735 3.9048-2.5103 3.0681-5.8573 6.973-10.0411 11.7146-4.1838 4.7417-8.9255 9.4833-13.667 13.946-4.7417 4.7416-9.7623 8.6465-14.504 11.9935-5.0205 3.347-9.4832 5.0206-13.1091 5.0206-2.7892 0-5.2995-.5578-7.252-1.9524-1.9524-1.3946-3.6259-3.0682-5.0205-5.0206s-2.2313-4.4627-2.7892-6.973c-.8367-2.5103-1.1157-5.2995-1.1157-7.8097 0-3.626.279-7.5309 1.1157-11.9936.5579-4.4627 1.6735-9.4832 3.0681-14.7827-2.7892 3.347-5.8573 7.2519-9.2043 11.4357-3.347 4.4627-6.694 8.6465-9.7622 12.8303-3.0681 4.4627-4.4627 10.32-8.6465 11.4357-10.8779 3.347-437.067 5.5784-438.1827 6.973-1.1157 1.3946-2.2314 2.5103-3.0681 3.0681-1.1157.279-1.6735.5578-2.2314.5578z" fill-rule="nonzero"/>
  <path d="M570.7974 138.0657c-3.9048 0-7.2519-1.3946-9.4832-3.9049-2.5103-2.5102-3.905-5.8573-3.905-9.4832 0-2.2314.558-4.7417 1.3947-7.5309.8368-2.7891 2.2313-5.5783 3.626-8.6465 1.1156-3.068 2.7891-5.8573 4.4627-8.6465 1.6735-2.5102 3.068-5.0205 4.4627-7.2519 0-.2789.5578-1.1157 1.3946-2.5103.8367-1.3946 1.6735-2.7892 2.7892-4.7416l3.347-5.8573c1.1157-1.9524 1.9524-3.9049 2.7892-5.2995.279-.8367.8368-1.9524 1.1157-2.7892.2789-.8367.5578-1.9524.5578-2.7892 0-.5578-.5578-.8367-1.9524-.8367h-5.8573c-1.9525 0-3.626-.279-5.0206-.8368-1.6735-.2789-3.0681-1.3946-4.1838-2.7892-3.626 4.4627-7.8097 9.4833-12.2724 15.0617-4.7417 5.5784-9.2044 10.8778-13.946 15.8984-.8368 1.1157-2.2314 1.6735-3.9049 1.6735-1.9524 0-3.347-.5578-4.1838-1.6735-.8367-.8368-1.1157-2.2314-1.1157-3.626s.279-2.5102 1.1157-3.347l14.5038-17.014c2.5103-3.0682 5.0206-5.8574 7.5309-8.9255 2.5102-2.7892 4.4627-5.2995 6.4151-7.5308 3.626-4.1838 5.8573-6.973 6.694-8.3676.8368-1.1157 1.3947-1.9525 1.9525-2.5103.5579-.5578 1.3946-1.1157 2.2314-1.6735.8367-.5579 1.6735-.8368 2.5102-.8368 1.9525 0 3.626.5579 4.4628 1.6735.8367 1.1157 1.1156 2.2314 1.1156 3.347 0 1.6736-.5578 3.3471-1.6735 5.0206-1.9524 3.0681-2.7892 5.0206-1.9524 5.5784.279.279 1.3946.5579 2.7892.279 1.3946-.279 3.0681-.279 4.4627-.279 3.0681 0 5.8573 1.1157 8.0887 3.0681 1.9524 1.9525 3.068 4.4627 3.068 7.5309 0 1.9524-.5578 4.4627-1.3945 6.973-.8368 2.5102-1.9525 5.2994-3.347 8.0886-1.3947 3.0681-3.0682 5.8573-4.7417 8.9254-1.9524 3.0682-3.626 5.8574-5.0205 8.3676l-7.5309 13.3882c-2.5102 4.7416-3.9048 8.3676-3.9048 11.4357 0 1.6735.8367 2.5103 2.5102 2.5103.8368 0 1.6736-.279 2.5103-.8368 4.7416-3.626 9.7622-8.0887 14.7827-13.1092 5.0206-4.7417 9.7622-9.7622 13.946-14.5038 1.9525-1.9525 3.9049-3.905 5.5784-6.1363 1.6735-1.9524 3.347-3.626 4.7417-5.0205 1.1156-1.1157 2.5102-1.6735 3.9048-1.6735 1.3946 0 2.5103.5578 3.9049 1.6735 1.1157 1.1156 1.6735 2.2313 1.6735 3.626 0 1.3945-.5578 2.7891-1.6735 3.9048l-4.1838 4.4627c-2.5103 2.5103-5.0205 5.5784-8.0887 8.9254-3.068 3.347-6.4151 6.6941-9.4832 10.0411-3.0681 3.347-6.4152 6.4152-9.4833 9.4833-3.347 3.0681-6.4151 5.5784-9.4833 7.5308-2.5102 1.6736-5.5784 2.5103-8.6465 2.5103z" fill-rule="nonzero"/>
  <path d="M677.3447 138.0657c-1.6735 0-3.068-.2789-4.1838-.8367-1.1157-.5579-2.2313-1.1157-3.068-1.9525-.8368-.8367-1.9525-2.2313-2.7893-3.9049-1.1157-1.6735-1.6735-3.9048-1.6735-6.694 0-2.5103.5578-5.8573 1.6735-9.7622.8368-3.626 2.2314-7.5308 3.626-11.4357-1.9525 2.2313-3.626 4.4627-5.5784 6.694-1.9525 2.5103-3.9049 4.7417-5.8573 6.6941-5.0206 5.2995-10.32 10.0411-16.1774 13.946-5.8573 4.1838-11.1568 6.1362-15.8984 6.4152-3.347 0-5.8573-.5579-7.5308-1.6736-1.6735-1.3946-3.0681-2.5102-3.9049-3.626-1.3946-2.2313-2.2313-5.2994-2.2313-9.2043 0-6.4151 2.5102-15.8984 7.5308-28.1708-1.3946 1.3946-3.0681 2.2313-4.7417 2.2313-1.9524 0-3.347-.5578-4.1837-1.6735-.8368-.8368-1.1157-2.2314-1.1157-3.626s.5578-2.7892 1.6735-3.9048c7.5308-8.6465 13.3881-15.3406 17.014-20.3612 3.626-5.0205 6.4152-9.4832 8.3677-13.1092l2.5103-4.1838c.8367-1.1157 2.2313-1.6735 4.1837-1.6735 1.3946 0 2.7892.5578 3.626 1.6735.8368 1.3946 1.3946 2.7892 1.3946 4.1838 0 .279 0 .5579-.279 1.1157-.2788.8368-.5578 1.3946-.8367 2.2314-.2789.8367-.8367 1.9524-1.3946 2.7891-.5578 1.1157-1.1157 2.5103-1.6735 3.905l-9.7622 23.1502c-3.068 7.252-5.8573 13.946-8.0886 20.3612-2.2314 6.694-3.347 11.7146-3.347 15.3406 0 2.2313.8367 3.347 2.5102 3.347 3.347 0 7.2519-1.6735 11.7146-5.2995 4.4627-3.347 8.9254-7.5308 13.3882-12.2724 3.9048-4.4628 7.8097-9.4833 11.9935-14.7828 3.9049-5.2995 7.5308-10.32 11.1568-15.6195 3.626-5.2994 6.694-10.32 9.7622-15.0616 3.068-4.7417 5.2994-8.9255 7.2519-12.2725.2789-.8368 1.1157-1.6735 1.9524-2.5103.8368-.5578 1.6735-.8367 2.7892-.8367 1.9525 0 3.626.5578 4.4627 1.6735.8368 1.3946 1.1157 2.5103 1.1157 3.347 0 1.1157-.279 2.5103-1.1157 3.9049-1.6735 3.626-3.347 7.8097-4.7416 11.9935-1.6735 4.4628-3.347 8.9255-5.2995 13.1093-1.3946 3.347-3.068 6.973-4.7416 11.1567-1.9524 4.4628-3.626 8.3676-5.0206 12.5514s-2.7892 7.8098-3.626 11.4357c-1.1156 3.626-1.6734 6.1363-1.6734 8.0887 0 1.3946.2789 2.2314 1.1156 2.2314 1.6736 0 3.905-1.1157 6.973-3.347 3.0681-2.2314 6.4152-5.2996 10.32-8.9255 3.905-3.626 8.0887-7.8098 12.5514-12.8303 4.1838-4.7416 8.6465-9.4833 13.1093-14.5038 1.1156-1.1157 2.5102-1.6735 3.9048-1.6735 1.3946 0 2.7892.5578 3.905 1.6735 1.1156 1.1156 1.6734 2.2313 1.6734 3.626 0 1.3945-.5578 2.7891-1.6735 3.9048l-4.1838 4.1838c-1.6735 1.6735-3.347 3.626-5.0205 5.5784-3.0682 3.626-6.1363 7.2519-9.7622 11.1568-3.626 3.9048-7.252 7.5308-10.8779 10.599-3.626 3.347-7.2519 6.1361-10.8779 8.3675-3.626 1.9524-7.2519 3.0681-10.32 3.0681z" fill-rule="nonzero"/>
  <path d="M728.666 140.297c-7.252 0-13.946-1.6734-19.8034-5.2994-5.8573-3.626-10.599-8.0887-14.7827-13.3881-.279-.279-.8368-.8368-1.1157-1.3946-.2789-.5579-.2789-1.3946-.2789-2.5103 0-1.3946.5578-2.7892 1.9524-4.1838 4.7417-4.4627 9.2044-8.9254 13.6671-13.667 4.7416-4.7417 8.6465-9.2044 12.2725-13.3882 4.7416-5.8573 9.7621-11.9936 14.5038-18.6876 4.7416-6.4152 8.9254-12.5514 12.5514-18.4087.8367-.8368 1.6735-2.2314 3.068-3.9049 1.3947-1.3946 3.0682-2.2313 5.0206-2.2313 1.3946 0 2.7892.5578 3.626 1.6735.8367 1.3946 1.3946 2.5102 1.3946 3.9048 0 .8368-.5579 1.9525-1.3946 3.0682-.8368 1.3946-1.9525 2.5102-2.7892 3.9048-.5579 1.3946-.8368 2.7892-1.1157 4.7417-.279 1.9524-.279 4.1838-.279 6.694 0 6.4152.279 12.2725.8368 18.1298.279 2.5103.279 5.2995.5579 7.8098.279 2.7892.279 5.5784.279 8.0886 0 3.347 0 6.6941-.279 9.7622-.279 3.347-1.1157 6.4152-1.9524 9.4833 3.068-1.9525 6.1362-4.4627 9.4832-7.252 3.347-2.5102 6.694-5.2994 9.7622-8.3675 3.0681-2.7892 6.1362-5.5784 9.2043-8.6465 3.0682-3.0681 5.5784-5.8573 8.0887-8.6465 1.1157-1.1157 2.5103-1.6735 3.9049-1.6735 1.9524 0 3.347.5578 4.1838 1.6735.8367 1.1156 1.1157 2.2313 1.1157 3.626 0 1.6734-.5579 3.068-1.3946 3.9048-4.4627 5.0206-9.4833 10.32-14.7828 15.6195-5.5784 5.2995-11.4357 10.32-17.572 14.5038-6.1361 4.4627-12.2724 8.0887-18.6875 10.8779-6.4152 2.7892-12.8303 4.1838-19.2455 4.1838zm-1.3947-45.1849c-6.1362 7.252-13.3881 15.0617-21.7557 23.4292 3.347 3.626 6.973 6.1363 10.599 7.8098 3.6259 1.9524 8.3675 2.7892 13.667 2.7892 6.4152 0 10.599-2.5103 12.8303-7.8098 2.2314-5.2994 3.347-11.7146 3.347-19.5243 0-3.0681 0-6.1363-.2789-9.4833-.2789-3.0681-.5578-5.8573-.8367-8.9254v-3.347c-.279-1.3947-.279-2.5103-.279-3.626-.2789-1.1157-.2789-1.9525-.2789-2.5103-.2789-.5578-.2789-.5578-.2789.279-2.2314 3.068-4.7416 6.415-7.5308 9.7621-2.7892 3.347-5.8573 6.973-9.2044 11.1568z" fill-rule="nonzero"/>
  <path d="M794.7699 96.7856c-1.6735 0-3.0681-.5578-4.1838-1.6735-.8368-.8368-1.3946-2.2314-1.3946-3.626s.5578-2.7892 1.6735-3.9048c4.7416-5.0206 8.9254-9.7622 12.2725-14.5038 3.347-4.4628 6.4151-8.9255 9.2043-13.6671h-10.32c-1.3946 0-2.7892-.5578-3.9049-1.6735s-1.6735-2.5103-1.6735-3.9049.5578-2.7892 1.6735-3.9049c1.1157-.8367 2.5103-1.3946 3.9049-1.3946h16.1773l4.1838-8.9254c2.5103-6.973 5.0206-12.5514 6.973-17.293 1.9524-4.7417 3.347-8.3676 4.7416-11.1568 1.3946-3.347 2.5103-5.8573 3.347-7.8097.8368-2.2314 2.5103-3.347 5.0206-3.347 1.9525 0 3.347.5578 4.1838 1.6734.8368 1.1157 1.1157 2.2314 1.1157 3.626v1.3946c0 .5578-.279 1.1157-.5578 1.9524l-16.7352 39.8855h25.6606c1.3946 0 2.7892.5579 3.9049 1.3946 1.1156 1.1157 1.6735 2.5103 1.6735 3.9049s-.5579 2.7892-1.6735 3.9049c-1.1157 1.1157-2.5103 1.6735-3.905 1.6735h-29.8443c-1.6735 4.1838-3.347 8.6465-5.0206 13.667-1.9524 5.0206-3.626 10.0412-5.0205 15.3406-1.3946 5.2995-2.7892 10.0411-3.626 14.7828-1.1157 4.7416-1.6735 8.9254-1.6735 12.5513 0 2.2314.279 4.7417 1.1157 7.252.8367 2.5102 2.5103 3.068 4.4627 3.9048 2.2314.8368 472.7687-1.9524 476.6736-.8367 6.4151 1.9524 10.32 6.1362 5.2995 9.4832-5.0206 3.347-478.3471 2.2314-481.9731 2.2314-2.7892 0-5.2995-.5578-7.252-1.9524-1.9523-1.3946-3.6259-3.0682-5.0205-5.0206s-2.2313-4.4627-2.7892-6.973c-.8367-2.5103-1.1156-5.2995-1.1156-7.8097 0-3.626.2789-7.8098 1.1156-12.5514.8368-4.7416 1.9525-9.7622 3.347-15.0617l-6.1362 6.6941c-1.1156 1.1157-2.5102 1.6735-3.9048 1.6735z" fill-rule="nonzero"/>
</svg>
