<?xml version="1.0" encoding="UTF-8" standalone="no"?>
<!DOCTYPE svg PUBLIC "-//W3C//DTD SVG 1.1//EN" "http://www.w3.org/Graphics/SVG/1.1/DTD/svg11.dtd">
<svg width="100%" height="100%" viewBox="0 0 1301 141" version="1.1" xmlns="http://www.w3.org/2000/svg" xmlns:xlink="http://www.w3.org/1999/xlink" xml:space="preserve" xmlns:serif="http://www.serif.com/" style="fill-rule:evenodd;clip-rule:evenodd;stroke-linejoin:round;stroke-miterlimit:2;">
    <g transform="matrix(1,0,0,1,10.3562,-329.852)">
        <g transform="matrix(23.2433,0,0,23.2433,-3929.56,-9886.74)">
            <g transform="matrix(12,0,0,12,188.29,445.322)">
                <path d="M-1.619,0.005C-1.625,0.005 -1.63,0.003 -1.634,-0.001C-1.638,-0.004 -1.639,-0.009 -1.639,-0.014C-1.639,-0.018 -1.638,-0.022 -1.634,-0.027C-1.625,-0.04 -0.073,-0.059 -0.046,-0.076C-0.025,-0.089 -0.016,-0.116 0,-0.137C0.023,-0.167 0.043,-0.194 0.061,-0.217C0.078,-0.24 0.09,-0.257 0.097,-0.268L0.061,-0.268C0.056,-0.268 0.051,-0.27 0.047,-0.274C0.043,-0.278 0.041,-0.283 0.041,-0.288C0.041,-0.293 0.043,-0.298 0.047,-0.302C0.051,-0.305 0.056,-0.307 0.061,-0.307L0.119,-0.307L0.134,-0.339C0.144,-0.364 0.152,-0.384 0.159,-0.4C0.165,-0.416 0.17,-0.429 0.175,-0.439C0.179,-0.448 0.182,-0.455 0.184,-0.46C0.186,-0.464 0.187,-0.467 0.188,-0.469C0.192,-0.477 0.198,-0.481 0.206,-0.481C0.213,-0.481 0.218,-0.479 0.221,-0.476C0.224,-0.473 0.226,-0.469 0.226,-0.464C0.226,-0.463 0.226,-0.46 0.226,-0.458C0.225,-0.455 0.224,-0.452 0.223,-0.45C0.22,-0.443 0.216,-0.433 0.211,-0.419C0.205,-0.405 0.199,-0.391 0.192,-0.376C0.185,-0.361 0.179,-0.346 0.174,-0.334C0.169,-0.321 0.165,-0.312 0.163,-0.307L0.255,-0.307C0.26,-0.307 0.265,-0.305 0.269,-0.302C0.273,-0.298 0.275,-0.293 0.275,-0.288C0.275,-0.283 0.273,-0.278 0.269,-0.274C0.265,-0.27 0.26,-0.268 0.255,-0.268L0.148,-0.268C0.142,-0.253 0.136,-0.237 0.13,-0.219C0.123,-0.201 0.117,-0.183 0.112,-0.164C0.107,-0.145 0.102,-0.128 0.099,-0.111C0.095,-0.094 0.093,-0.079 0.093,-0.066C0.093,-0.058 0.094,-0.049 0.097,-0.04C0.1,-0.031 0.105,-0.026 0.113,-0.026C0.12,-0.026 0.129,-0.03 0.141,-0.039C0.152,-0.048 0.165,-0.059 0.18,-0.073C0.194,-0.086 0.209,-0.101 0.225,-0.118C0.24,-0.135 0.255,-0.151 0.269,-0.167C0.273,-0.171 0.278,-0.173 0.283,-0.173C0.288,-0.173 0.293,-0.171 0.297,-0.167C0.301,-0.163 0.303,-0.159 0.303,-0.154C0.303,-0.149 0.301,-0.144 0.297,-0.14C0.288,-0.129 0.276,-0.115 0.261,-0.098C0.246,-0.081 0.229,-0.064 0.212,-0.048C0.195,-0.031 0.177,-0.017 0.16,-0.005C0.142,0.007 0.126,0.013 0.113,0.013C0.103,0.013 0.094,0.011 0.087,0.006C0.08,0.001 0.074,-0.005 0.069,-0.012C0.064,-0.019 0.061,-0.028 0.059,-0.037C0.056,-0.046 0.055,-0.056 0.055,-0.065C0.055,-0.078 0.056,-0.092 0.059,-0.108C0.061,-0.124 0.065,-0.142 0.07,-0.161C0.06,-0.149 0.049,-0.135 0.037,-0.12C0.025,-0.104 0.013,-0.089 0.002,-0.074C-0.009,-0.058 -0.014,-0.037 -0.029,-0.033C-0.068,-0.021 -1.596,-0.013 -1.6,-0.008C-1.604,-0.003 -1.608,0.001 -1.611,0.003C-1.615,0.004 -1.617,0.005 -1.619,0.005Z" style="fill-rule:nonzero;"/>
            </g>
            <g transform="matrix(12,0,0,12,191.674,445.322)">
                <path d="M0.125,0.014C0.111,0.014 0.099,0.009 0.091,0C0.082,-0.009 0.077,-0.021 0.077,-0.034C0.077,-0.042 0.079,-0.051 0.082,-0.061C0.085,-0.071 0.09,-0.081 0.095,-0.092C0.099,-0.103 0.105,-0.113 0.111,-0.123C0.117,-0.132 0.122,-0.141 0.127,-0.149C0.127,-0.15 0.129,-0.153 0.132,-0.158C0.135,-0.163 0.138,-0.168 0.142,-0.175C0.146,-0.182 0.15,-0.189 0.154,-0.196C0.158,-0.203 0.161,-0.21 0.164,-0.215C0.165,-0.218 0.167,-0.222 0.168,-0.225C0.169,-0.228 0.17,-0.232 0.17,-0.235C0.17,-0.237 0.168,-0.238 0.163,-0.238L0.142,-0.238C0.135,-0.238 0.129,-0.239 0.124,-0.241C0.118,-0.242 0.113,-0.246 0.109,-0.251C0.096,-0.235 0.081,-0.217 0.065,-0.197C0.048,-0.177 0.032,-0.158 0.015,-0.14C0.012,-0.136 0.007,-0.134 0.001,-0.134C-0.006,-0.134 -0.011,-0.136 -0.014,-0.14C-0.017,-0.143 -0.018,-0.148 -0.018,-0.153C-0.018,-0.158 -0.017,-0.162 -0.014,-0.165L0.038,-0.226C0.047,-0.237 0.056,-0.247 0.065,-0.258C0.074,-0.268 0.081,-0.277 0.088,-0.285C0.101,-0.3 0.109,-0.31 0.112,-0.315C0.115,-0.319 0.117,-0.322 0.119,-0.324C0.121,-0.326 0.124,-0.328 0.127,-0.33C0.13,-0.332 0.133,-0.333 0.136,-0.333C0.143,-0.333 0.149,-0.331 0.152,-0.327C0.155,-0.323 0.156,-0.319 0.156,-0.315C0.156,-0.309 0.154,-0.303 0.15,-0.297C0.143,-0.286 0.14,-0.279 0.143,-0.277C0.144,-0.276 0.148,-0.275 0.153,-0.276C0.158,-0.277 0.164,-0.277 0.169,-0.277C0.18,-0.277 0.19,-0.273 0.198,-0.266C0.205,-0.259 0.209,-0.25 0.209,-0.239C0.209,-0.232 0.207,-0.223 0.204,-0.214C0.201,-0.205 0.197,-0.195 0.192,-0.185C0.187,-0.174 0.181,-0.164 0.175,-0.153C0.168,-0.142 0.162,-0.132 0.157,-0.123C0.148,-0.107 0.139,-0.091 0.13,-0.075C0.121,-0.058 0.116,-0.045 0.116,-0.034C0.116,-0.028 0.119,-0.025 0.125,-0.025C0.128,-0.025 0.131,-0.026 0.134,-0.028C0.151,-0.041 0.169,-0.057 0.187,-0.075C0.205,-0.092 0.222,-0.11 0.237,-0.127C0.244,-0.134 0.251,-0.141 0.257,-0.149C0.263,-0.156 0.269,-0.162 0.274,-0.167C0.278,-0.171 0.283,-0.173 0.288,-0.173C0.293,-0.173 0.297,-0.171 0.302,-0.167C0.306,-0.163 0.308,-0.159 0.308,-0.154C0.308,-0.149 0.306,-0.144 0.302,-0.14L0.287,-0.124C0.278,-0.115 0.269,-0.104 0.258,-0.092C0.247,-0.08 0.235,-0.068 0.224,-0.056C0.213,-0.044 0.201,-0.033 0.19,-0.022C0.178,-0.011 0.167,-0.002 0.156,0.005C0.147,0.011 0.136,0.014 0.125,0.014Z" style="fill-rule:nonzero;"/>
            </g>
            <g transform="matrix(12,0,0,12,195.13,445.322)">
                <path d="M0.219,0.014C0.213,0.014 0.208,0.013 0.204,0.011C0.2,0.009 0.196,0.007 0.193,0.004C0.19,0.001 0.186,-0.004 0.183,-0.01C0.179,-0.016 0.177,-0.024 0.177,-0.034C0.177,-0.043 0.179,-0.055 0.183,-0.069C0.186,-0.082 0.191,-0.096 0.196,-0.11C0.189,-0.102 0.183,-0.094 0.176,-0.086C0.169,-0.077 0.162,-0.069 0.155,-0.062C0.137,-0.043 0.118,-0.026 0.097,-0.012C0.076,0.003 0.057,0.01 0.04,0.011C0.028,0.011 0.019,0.009 0.013,0.005C0.007,0 0.002,-0.004 -0.001,-0.008C-0.006,-0.016 -0.009,-0.027 -0.009,-0.041C-0.009,-0.064 0,-0.098 0.018,-0.142C0.013,-0.137 0.007,-0.134 0.001,-0.134C-0.006,-0.134 -0.011,-0.136 -0.014,-0.14C-0.017,-0.143 -0.018,-0.148 -0.018,-0.153C-0.018,-0.158 -0.016,-0.163 -0.012,-0.167C0.015,-0.198 0.036,-0.222 0.049,-0.24C0.062,-0.258 0.072,-0.274 0.079,-0.287C0.082,-0.292 0.085,-0.297 0.088,-0.302C0.091,-0.306 0.096,-0.308 0.103,-0.308C0.108,-0.308 0.113,-0.306 0.116,-0.302C0.119,-0.297 0.121,-0.292 0.121,-0.287C0.121,-0.286 0.121,-0.285 0.12,-0.283C0.119,-0.28 0.118,-0.278 0.117,-0.275C0.116,-0.272 0.114,-0.268 0.112,-0.265C0.11,-0.261 0.108,-0.256 0.106,-0.251L0.071,-0.168C0.06,-0.142 0.05,-0.118 0.042,-0.095C0.034,-0.071 0.03,-0.053 0.03,-0.04C0.03,-0.032 0.033,-0.028 0.039,-0.028C0.051,-0.028 0.065,-0.034 0.081,-0.047C0.097,-0.059 0.113,-0.074 0.129,-0.091C0.143,-0.107 0.157,-0.125 0.172,-0.144C0.186,-0.163 0.199,-0.181 0.212,-0.2C0.225,-0.219 0.236,-0.237 0.247,-0.254C0.258,-0.271 0.266,-0.286 0.273,-0.298C0.274,-0.301 0.277,-0.304 0.28,-0.307C0.283,-0.309 0.286,-0.31 0.29,-0.31C0.297,-0.31 0.303,-0.308 0.306,-0.304C0.309,-0.299 0.31,-0.295 0.31,-0.292C0.31,-0.288 0.309,-0.283 0.306,-0.278C0.3,-0.265 0.294,-0.25 0.289,-0.235C0.283,-0.219 0.277,-0.203 0.27,-0.188C0.265,-0.176 0.259,-0.163 0.253,-0.148C0.246,-0.132 0.24,-0.118 0.235,-0.103C0.23,-0.088 0.225,-0.075 0.222,-0.062C0.218,-0.049 0.216,-0.04 0.216,-0.033C0.216,-0.028 0.217,-0.025 0.22,-0.025C0.226,-0.025 0.234,-0.029 0.245,-0.037C0.256,-0.045 0.268,-0.056 0.282,-0.069C0.296,-0.082 0.311,-0.097 0.327,-0.115C0.342,-0.132 0.358,-0.149 0.374,-0.167C0.378,-0.171 0.383,-0.173 0.388,-0.173C0.393,-0.173 0.398,-0.171 0.402,-0.167C0.406,-0.163 0.408,-0.159 0.408,-0.154C0.408,-0.149 0.406,-0.144 0.402,-0.14C0.397,-0.135 0.392,-0.13 0.387,-0.125C0.381,-0.119 0.375,-0.112 0.369,-0.105C0.358,-0.092 0.347,-0.079 0.334,-0.065C0.321,-0.051 0.308,-0.038 0.295,-0.027C0.282,-0.015 0.269,-0.005 0.256,0.003C0.243,0.01 0.23,0.014 0.219,0.014Z" style="fill-rule:nonzero;"/>
            </g>
            <g transform="matrix(12,0,0,12,199.774,445.322)">
                <path d="M0.016,0.022C-0.01,0.022 -0.034,0.016 -0.055,0.003C-0.076,-0.01 -0.093,-0.026 -0.108,-0.045C-0.109,-0.046 -0.111,-0.048 -0.112,-0.05C-0.113,-0.052 -0.113,-0.055 -0.113,-0.059C-0.113,-0.064 -0.111,-0.069 -0.106,-0.074C-0.089,-0.09 -0.073,-0.106 -0.057,-0.123C-0.04,-0.14 -0.026,-0.156 -0.013,-0.171C0.004,-0.192 0.022,-0.214 0.039,-0.238C0.056,-0.261 0.071,-0.283 0.084,-0.304C0.087,-0.307 0.09,-0.312 0.095,-0.318C0.1,-0.323 0.106,-0.326 0.113,-0.326C0.118,-0.326 0.123,-0.324 0.126,-0.32C0.129,-0.315 0.131,-0.311 0.131,-0.306C0.131,-0.303 0.129,-0.299 0.126,-0.295C0.123,-0.29 0.119,-0.286 0.116,-0.281C0.114,-0.276 0.113,-0.271 0.112,-0.264C0.111,-0.257 0.111,-0.249 0.111,-0.24C0.111,-0.217 0.112,-0.196 0.114,-0.175C0.115,-0.166 0.115,-0.156 0.116,-0.147C0.117,-0.137 0.117,-0.127 0.117,-0.118C0.117,-0.106 0.117,-0.094 0.116,-0.083C0.115,-0.071 0.112,-0.06 0.109,-0.049C0.12,-0.056 0.131,-0.065 0.143,-0.075C0.155,-0.084 0.167,-0.094 0.178,-0.105C0.189,-0.115 0.2,-0.125 0.211,-0.136C0.222,-0.147 0.231,-0.157 0.24,-0.167C0.244,-0.171 0.249,-0.173 0.254,-0.173C0.261,-0.173 0.266,-0.171 0.269,-0.167C0.272,-0.163 0.273,-0.159 0.273,-0.154C0.273,-0.148 0.271,-0.143 0.268,-0.14C0.252,-0.122 0.234,-0.103 0.215,-0.084C0.195,-0.065 0.174,-0.047 0.152,-0.032C0.13,-0.016 0.108,-0.003 0.085,0.007C0.062,0.017 0.039,0.022 0.016,0.022ZM0.011,-0.14C-0.011,-0.114 -0.037,-0.086 -0.067,-0.056C-0.055,-0.043 -0.042,-0.034 -0.029,-0.028C-0.016,-0.021 0.001,-0.018 0.02,-0.018C0.043,-0.018 0.058,-0.027 0.066,-0.046C0.074,-0.065 0.078,-0.088 0.078,-0.116C0.078,-0.127 0.078,-0.138 0.077,-0.15C0.076,-0.161 0.075,-0.171 0.074,-0.182C0.074,-0.185 0.074,-0.189 0.074,-0.194C0.073,-0.199 0.073,-0.203 0.073,-0.207C0.072,-0.211 0.072,-0.214 0.072,-0.216C0.071,-0.218 0.071,-0.218 0.071,-0.215C0.063,-0.204 0.054,-0.192 0.044,-0.18C0.034,-0.168 0.023,-0.155 0.011,-0.14Z" style="fill-rule:nonzero;"/>
            </g>
            <g transform="matrix(12,0,0,12,202.81,445.322)">
                <path d="M0,-0.134C-0.006,-0.134 -0.011,-0.136 -0.015,-0.14C-0.018,-0.143 -0.02,-0.148 -0.02,-0.153C-0.02,-0.158 -0.018,-0.163 -0.014,-0.167C0.003,-0.185 0.018,-0.202 0.03,-0.219C0.042,-0.235 0.053,-0.251 0.063,-0.268L0.026,-0.268C0.021,-0.268 0.016,-0.27 0.012,-0.274C0.008,-0.278 0.006,-0.283 0.006,-0.288C0.006,-0.293 0.008,-0.298 0.012,-0.302C0.016,-0.305 0.021,-0.307 0.026,-0.307L0.084,-0.307L0.099,-0.339C0.108,-0.364 0.117,-0.384 0.124,-0.401C0.131,-0.418 0.136,-0.431 0.141,-0.441C0.146,-0.453 0.15,-0.462 0.153,-0.469C0.156,-0.477 0.162,-0.481 0.171,-0.481C0.178,-0.481 0.183,-0.479 0.186,-0.475C0.189,-0.471 0.19,-0.467 0.19,-0.462L0.19,-0.457C0.19,-0.455 0.189,-0.453 0.188,-0.45L0.128,-0.307L0.22,-0.307C0.225,-0.307 0.23,-0.305 0.234,-0.302C0.238,-0.298 0.24,-0.293 0.24,-0.288C0.24,-0.283 0.238,-0.278 0.234,-0.274C0.23,-0.27 0.225,-0.268 0.22,-0.268L0.113,-0.268C0.107,-0.253 0.101,-0.237 0.095,-0.219C0.088,-0.201 0.082,-0.183 0.077,-0.164C0.072,-0.145 0.067,-0.128 0.064,-0.111C0.06,-0.094 0.058,-0.079 0.058,-0.066C0.058,-0.058 0.059,-0.049 0.062,-0.04C0.065,-0.031 0.071,-0.029 0.078,-0.026C0.086,-0.023 1.773,-0.033 1.787,-0.029C1.81,-0.022 1.824,-0.007 1.806,0.005C1.788,0.017 0.091,0.013 0.078,0.013C0.068,0.013 0.059,0.011 0.052,0.006C0.045,0.001 0.039,-0.005 0.034,-0.012C0.029,-0.019 0.026,-0.028 0.024,-0.037C0.021,-0.046 0.02,-0.056 0.02,-0.065C0.02,-0.078 0.021,-0.093 0.024,-0.11C0.027,-0.127 0.031,-0.145 0.036,-0.164L0.014,-0.14C0.01,-0.136 0.005,-0.134 0,-0.134Z" style="fill-rule:nonzero;"/>
            </g>
        </g>
    </g>
</svg>
