<?xml version="1.0" encoding="UTF-8" standalone="no"?>
<!DOCTYPE svg PUBLIC "-//W3C//DTD SVG 1.1//EN" "http://www.w3.org/Graphics/SVG/1.1/DTD/svg11.dtd">
<svg width="100%" height="100%" viewBox="0 0 966 691" version="1.1" xmlns="http://www.w3.org/2000/svg" xmlns:xlink="http://www.w3.org/1999/xlink" xml:space="preserve" xmlns:serif="http://www.serif.com/" style="fill-rule:evenodd;clip-rule:evenodd;stroke-linejoin:round;stroke-miterlimit:1.41421;">
    <g transform="matrix(1,0,0,1,-117.324,-104.999)">
        <path d="M220.676,681.319C220.676,720.237 197.54,733.826 169,733.826C140.46,733.826 117.324,720.237 117.324,681.319C117.324,642.401 169,592.89 169,592.89C169,592.89 220.676,642.401 220.676,681.319Z" style="fill:rgb(242,242,242);fill-rule:nonzero;"/>
    </g>
    <path d="M49.794,622.874L50.323,590.303L72.349,550.008L50.406,585.193L50.644,570.548L65.824,541.395L50.707,566.672L50.707,566.673L51.135,540.332L67.39,517.123L51.202,536.19L51.469,487.892L49.789,551.83L49.927,549.193L33.401,523.896L49.662,554.256L48.122,583.674L48.077,582.893L29.024,556.272L48.019,585.651L47.826,589.33L47.792,589.385L47.808,589.687L43.901,664.322L49.121,664.322L49.747,625.772L68.695,596.464L49.794,622.874Z" style="fill:rgb(63,61,86);fill-rule:nonzero;"/>
    <g transform="matrix(1,0,0,1,-117.324,-104.999)">
        <path d="M628.119,181.264C763.794,289.372 786.14,486.998 678.031,622.672C569.922,758.346 240.663,846.015 236.623,672.583C232.558,498.041 142.742,334.473 186.711,231.175C254.655,71.555 492.445,73.155 628.119,181.264Z" style="fill:rgb(242,242,242);fill-rule:nonzero;"/>
    </g>
    <ellipse cx="150.353" cy="666.003" rx="144" ry="24" style="fill:rgb(63,61,86);"/>
    <ellipse cx="886.762" cy="657.956" rx="70.914" ry="11.819" style="fill:rgb(63,61,86);"/>
    <rect x="143.353" y="160.003" width="822" height="444" style="fill:rgb(63,61,86);"/>
    <rect x="143.353" y="124.003" width="822" height="41" style="fill:rgb(63,61,86);"/>
    <circle cx="163.353" cy="142.003" r="7" style="fill:white;"/>
    <circle cx="183.353" cy="142.003" r="7" style="fill:white;"/>
    <circle cx="203.353" cy="142.003" r="7" style="fill:white;"/>
    <rect x="143.353" y="160.003" width="822" height="5" style="fill-opacity:0.1;"/>
    <rect x="190.853" y="230.503" width="162" height="173" style="fill:white;fill-opacity:0.3;"/>
    <rect x="201.853" y="218.503" width="162" height="173" style="fill:white;"/>
    <rect x="784.853" y="227.728" width="124.543" height="133" style="fill:white;fill-opacity:0.3;"/>
    <rect x="793.309" y="218.503" width="124.543" height="133" style="fill:white;"/>
    <rect x="784.853" y="412.503" width="124.543" height="133" style="fill:white;fill-opacity:0.3;"/>
    <rect x="793.309" y="403.277" width="124.543" height="133" style="fill:white;"/>
    <rect x="420.853" y="218.503" width="309" height="12" style="fill:white;"/>
    <rect x="420.853" y="253.503" width="309" height="12" style="fill:white;"/>
    <rect x="420.853" y="288.503" width="309" height="12" style="fill:white;"/>
    <rect x="420.853" y="323.503" width="309" height="12" style="fill:white;"/>
    <rect x="420.853" y="358.503" width="309" height="12" style="fill:white;"/>
    <rect x="420.853" y="393.503" width="309" height="12" style="fill:white;"/>
    <rect x="420.853" y="428.503" width="309" height="12" style="fill:white;"/>
    <rect x="420.853" y="463.503" width="309" height="12" style="fill:white;"/>
    <rect x="420.853" y="498.503" width="309" height="12" style="fill:white;"/>
    <rect x="420.853" y="533.503" width="309" height="12" style="fill:white;"/>
    <circle cx="126.339" cy="291.382" r="21.5" style="fill:rgb(255,209,178);"/>
    <g transform="matrix(1,0,0,1,-117.324,-104.999)">
        <path d="M229.751,406.498C229.751,406.498 229.751,429.263 225.957,431.792C222.163,434.322 256.31,436.851 256.31,436.851L256.31,407.763L229.751,406.498Z" style="fill:rgb(255,209,178);fill-rule:nonzero;"/>
    </g>
    <g transform="matrix(1,0,0,1,-117.324,-104.999)">
        <path d="M188.015,532.969C188.015,532.969 212.045,560.793 217.104,560.793C222.163,560.793 227.222,541.822 227.222,541.822L203.192,524.116L188.015,532.969Z" style="fill:rgb(255,209,178);fill-rule:nonzero;"/>
    </g>
    <g transform="matrix(1,0,0,1,-117.324,-104.999)">
        <path d="M308.163,407.763L311.957,381.204C311.957,381.204 314.487,344.527 322.075,353.38C329.663,362.233 324.604,382.468 324.604,382.468C324.604,382.468 328.398,411.557 324.604,415.351C320.81,419.145 308.163,407.763 308.163,407.763Z" style="fill:rgb(255,209,178);fill-rule:nonzero;"/>
    </g>
    <g transform="matrix(1,0,0,1,-117.324,-104.999)">
        <path d="M286.663,550.675L218.369,544.351C218.369,544.351 209.516,586.087 212.045,602.528C214.574,618.969 215.839,665.764 215.839,665.764C215.839,665.764 218.369,750.499 222.163,755.558C225.957,760.617 238.604,759.352 242.398,761.882C246.192,764.411 252.516,756.823 252.516,755.558C252.516,754.293 244.927,754.293 248.722,746.705C252.516,739.117 238.604,717.617 242.398,707.499C246.192,697.381 252.516,683.47 248.722,678.411C244.927,673.352 251.251,608.852 251.251,608.852C251.251,608.852 282.869,654.381 282.869,674.617C282.869,694.852 280.339,741.646 279.075,746.705C277.81,751.764 276.545,753.029 279.075,756.823C281.604,760.617 284.133,764.411 282.869,765.676C281.604,766.941 305.634,765.676 305.634,758.088C305.634,750.499 304.369,750.499 306.898,744.176C309.428,737.852 310.692,661.97 310.692,661.97L286.663,550.675Z" style="fill:rgb(47,46,65);fill-rule:nonzero;"/>
    </g>
    <g transform="matrix(1,0,0,1,-117.324,-104.999)">
        <path d="M225.957,422.939L222.163,430.528C222.163,430.528 181.692,443.175 180.427,469.734L214.574,526.646C214.574,526.646 217.104,530.44 215.839,532.969C214.574,535.498 213.31,534.234 214.574,538.028C215.839,541.822 215.839,540.557 215.839,543.087C215.839,545.616 212.045,544.351 215.839,545.616C219.633,546.881 214.574,545.616 228.486,549.41C242.398,553.204 284.133,551.94 284.133,551.94L276.545,478.587L284.134,463.41L274.016,433.057C274.016,433.057 267.692,431.792 263.898,434.322C260.104,436.851 255.045,431.792 255.045,431.792C255.045,431.792 248.722,422.939 225.957,422.939Z" style="fill:rgb(87,90,137);fill-rule:nonzero;"/>
    </g>
    <g transform="matrix(1,0,0,1,-117.324,-104.999)">
        <path d="M267.692,434.322L274.016,433.057C274.016,433.057 299.31,425.469 300.575,419.145C301.839,412.822 308.163,405.233 308.163,405.233C308.163,405.233 328.398,400.174 327.134,416.616C325.869,433.057 320.81,438.116 318.281,440.645C315.751,443.175 287.928,463.41 282.869,463.41C277.81,463.41 267.692,434.322 267.692,434.322Z" style="fill:rgb(87,90,137);fill-rule:nonzero;"/>
    </g>
    <g transform="matrix(1,0,0,1,-117.324,-104.999)">
        <path d="M182.957,464.675L180.427,469.734L179.163,515.263C179.163,515.263 171.574,520.322 175.368,522.851C179.163,525.381 188.015,536.763 190.545,536.763C193.074,536.763 206.986,530.44 206.986,527.91C206.986,525.381 204.457,502.616 204.457,502.616L182.957,464.675Z" style="fill:rgb(87,90,137);fill-rule:nonzero;"/>
    </g>
    <g transform="matrix(1,0,0,1,-117.324,-104.999)">
        <path d="M229.751,755.558C229.751,755.558 229.751,768.205 228.486,770.735C227.222,773.264 224.692,785.911 232.28,785.911C236.628,785.973 240.939,785.111 244.927,783.382C248.916,781.652 244.927,775.794 248.722,774.529C252.516,773.264 261.369,763.146 257.575,760.617C253.78,758.088 246.192,755.558 246.192,755.558L229.751,755.558Z" style="fill:rgb(47,46,65);fill-rule:nonzero;"/>
    </g>
    <g transform="matrix(1,0,0,1,-117.324,-104.999)">
        <path d="M284.134,761.882C284.134,761.882 276.545,779.588 284.134,780.852C291.722,782.117 301.839,780.852 303.104,778.323C304.369,775.794 306.898,773.264 309.428,774.529C311.957,775.794 333.457,760.617 325.869,758.088C321.356,756.576 316.47,756.576 311.957,758.088L304.369,754.293L284.134,761.882Z" style="fill:rgb(47,46,65);fill-rule:nonzero;"/>
    </g>
    <g transform="matrix(1,0,0,1,-117.324,-104.999)">
        <path d="M246.381,420.078C246.74,420.056 247.09,419.959 247.41,419.794C247.925,419.379 248.267,418.787 248.369,418.134L250.952,408.983C251.932,405.511 253.506,401.455 257.038,400.721C257.779,400.672 258.503,400.479 259.17,400.154C259.953,399.417 260.376,398.374 260.327,397.299L261.434,385.472C261.733,382.274 262.017,378.949 260.902,375.937C259.256,371.494 254.745,368.569 250.083,367.728C245.42,366.887 240.617,367.828 236.079,369.188C229.195,371.25 222.066,374.8 219.075,381.335C217.344,385.118 217.237,389.432 217.469,393.586C217.707,397.863 218.302,402.223 220.268,406.03C221.361,407.998 222.63,409.862 224.059,411.601C226.194,414.365 228.812,419.767 232.346,420.798C236.329,421.961 242.344,420.602 246.381,420.078Z" style="fill:rgb(124,75,0);fill-rule:nonzero;"/>
    </g>
    <g transform="matrix(1,0,0,1,-117.324,-104.999)">
        <path d="M947.429,688.571C947.429,726.6 971.286,757.373 1000.77,757.373" style="fill:rgb(47,46,65);fill-rule:nonzero;"/>
    </g>
    <g transform="matrix(1,0,0,1,-117.324,-104.999)">
        <path d="M1000.77,757.373C1000.77,718.916 1027.39,687.798 1060.29,687.798" style="fill:white;fill-rule:nonzero;"/>
    </g>
    <g transform="matrix(1,0,0,1,-117.324,-104.999)">
        <path d="M966.755,692.019C966.755,728.142 981.969,757.373 1000.77,757.373" style="fill:white;fill-rule:nonzero;"/>
    </g>
    <g transform="matrix(1,0,0,1,-117.324,-104.999)">
        <path d="M1000.77,757.373C1000.77,708.234 1031.54,668.472 1069.57,668.472" style="fill:rgb(47,46,65);fill-rule:nonzero;"/>
    </g>
    <g transform="matrix(1,0,0,1,-117.324,-104.999)">
        <path d="M989.548,757.858C989.548,757.858 997.113,757.625 999.392,756.001C1001.67,754.378 1011.03,752.44 1011.59,755.043C1012.16,757.647 1022.96,767.992 1014.42,768.061C1005.88,768.13 994.578,766.731 992.302,765.345C990.027,763.959 989.548,757.858 989.548,757.858Z" style="fill:rgb(168,168,168);fill-rule:nonzero;"/>
    </g>
    <g transform="matrix(1,0,0,1,-117.324,-104.999)">
        <path d="M1014.57,767.155C1006.03,767.224 994.73,765.824 992.455,764.438C990.722,763.383 990.032,759.595 989.801,757.848C989.641,757.855 989.548,757.858 989.548,757.858C989.548,757.858 990.027,763.959 992.303,765.345C994.578,766.731 1005.88,768.13 1014.42,768.061C1016.89,768.041 1017.74,767.164 1017.69,765.865C1017.35,766.65 1016.41,767.14 1014.57,767.155Z" style="fill-opacity:0.2;fill-rule:nonzero;"/>
    </g>
</svg>
