<?xml version="1.0" encoding="UTF-8" standalone="no"?>
<!DOCTYPE svg PUBLIC "-//W3C//DTD SVG 1.1//EN" "http://www.w3.org/Graphics/SVG/1.1/DTD/svg11.dtd">
<svg width="100%" height="100%" viewBox="0 0 972 662" version="1.1" xmlns="http://www.w3.org/2000/svg" xmlns:xlink="http://www.w3.org/1999/xlink" xml:space="preserve" xmlns:serif="http://www.serif.com/" style="fill-rule:evenodd;clip-rule:evenodd;stroke-miterlimit:10;">
    <g transform="matrix(1,0,0,1,-114.28,-119)">
        <path d="M299,604.11C301.348,594.666 297.619,584.695 289.65,579.11C287.59,577.72 285.29,576.66 283.39,575.06C280.22,572.39 278.39,568.46 277.11,564.53C273.97,555.11 272.98,544.53 267.48,536.02C262.48,528.27 252.72,526.02 244.07,525.23C240.92,524.95 237.61,524.8 234.73,526.11C229.91,528.29 227.61,533.98 227.39,539.27C227.17,544.56 228.55,549.77 228.89,555.05C229.23,560.33 228.29,566.14 224.4,569.72C220.51,573.3 214.93,573.72 209.76,574.44C202.991,575.379 196.341,577.032 189.92,579.37C184.53,581.37 178.52,584.88 178.27,590.6C178.06,595.28 181.84,599.02 184.68,602.75C189.99,609.75 192.68,618.91 190.84,627.48C189,636.05 182.84,643.69 181.77,652.53C181.365,654.775 181.677,657.092 182.66,659.15C183.521,660.547 184.658,661.755 186,662.7C189.33,665.27 193,667.34 196.2,670.13C202.77,675.95 206.33,684.4 209.07,692.74C209.33,693.54 209.57,694.36 209.82,695.16L203.36,695.16C190.303,695.23 179.577,705.943 179.49,719C179.55,732.083 190.297,742.83 203.38,742.89L267.88,742.89C280.963,742.83 291.71,732.083 291.77,719C291.71,705.917 280.963,695.17 267.88,695.11L250.2,695.11C254.38,689.51 258.75,684.25 265.2,682.11C271.65,679.97 279.46,681.22 284.52,676.72C286.899,674.386 288.443,671.33 288.91,668.03C289.98,662.15 288.979,656.077 286.08,650.85C284.08,647.22 281.08,643.93 280.43,639.85C279.88,636.34 281.15,632.78 282.87,629.66C287.75,620.79 296.38,613.9 299,604.11Z" style="fill:url(#_Linear1);fill-rule:nonzero;"/>
    </g>
    <g transform="matrix(1,0,0,1,-114.28,-119)">
        <path d="M243.84,530.42C240.84,530.15 237.69,530.01 234.95,531.26C230.36,533.34 228.17,538.76 227.95,543.79C227.73,548.82 229.06,553.79 229.38,558.79C229.7,563.79 228.81,569.35 225.1,572.79C221.39,576.23 216.1,576.6 211.16,577.28C204.715,578.183 198.383,579.765 192.27,582C187.14,583.87 181.42,587.24 181.18,592.7C180.98,597.16 184.58,600.7 187.29,604.27C192.35,610.91 194.87,619.66 193.15,627.82C191.43,635.98 185.57,643.26 184.51,651.68C184.126,653.817 184.424,656.021 185.36,657.98C186.183,659.311 187.268,660.462 188.55,661.36C191.72,663.81 195.26,665.78 198.26,668.44C204.52,673.98 207.9,682.03 210.52,689.97C213.08,697.775 215.085,705.752 216.52,713.84C221.91,710.37 228.88,710.42 234.63,707.6C246.88,701.6 251,684.2 263.93,679.87C270.05,677.87 277.51,679.02 282.33,674.74C284.595,672.519 286.065,669.611 286.51,666.47C287.527,660.87 286.572,655.087 283.81,650.11C281.88,646.65 279.04,643.52 278.43,639.6C277.9,636.25 279.12,632.87 280.75,629.9C285.4,621.45 293.62,614.9 296.13,605.57C298.367,596.576 294.818,587.081 287.23,581.76C285.162,580.582 283.159,579.293 281.23,577.9C278.23,575.36 276.5,571.61 275.23,567.9C272.23,558.9 271.3,548.9 266.06,540.75C261.36,533.31 252.08,531.16 243.84,530.42Z" style="fill:rgb(77,182,172);fill-rule:nonzero;"/>
    </g>
    <g transform="matrix(1,0,0,1,-114.28,-119)">
        <path d="M243.75,530.73C243.75,530.73 255.12,683.14 225.55,709.3" style="fill:none;stroke:rgb(83,84,97);stroke-opacity:0.6;stroke-width:1px;"/>
    </g>
    <path d="M174.97,588.44C174.97,580.051 168.159,573.24 159.77,573.24L83.25,573.24C74.861,573.24 68.05,580.051 68.05,588.44L68.05,603.54C68.05,611.929 74.861,618.74 83.25,618.74L159.77,618.74C168.159,618.74 174.97,611.929 174.97,603.54L174.97,588.44Z" style="fill:white;"/>
    <g transform="matrix(1,0,0,1,-114.28,-119)">
        <path d="M181.2,589.87C181.2,589.87 210.28,586.48 245.79,608.08" style="fill:none;stroke:rgb(83,84,97);stroke-opacity:0.6;stroke-width:1px;"/>
    </g>
    <g transform="matrix(1,0,0,1,-114.28,-119)">
        <path d="M245.22,626.27C245.22,626.27 261.38,599.54 296.08,594.43" style="fill:none;stroke:rgb(83,84,97);stroke-opacity:0.6;stroke-width:1px;"/>
    </g>
    <g transform="matrix(1,0,0,1,-114.28,-119)">
        <path d="M184,651.86C184,651.86 224.31,645.03 242.83,656.41" style="fill:none;stroke:rgb(83,84,97);stroke-opacity:0.6;stroke-width:1px;"/>
    </g>
    <g transform="matrix(1,0,0,1,-114.28,-119)">
        <path d="M240.57,672C240.57,672 261.67,662.43 285.41,670.2" style="fill:none;stroke:rgb(83,84,97);stroke-opacity:0.6;stroke-width:1px;"/>
    </g>
    <g transform="matrix(1,0,0,1,-114.28,-119)">
        <path d="M1009.77,663.18L1009.77,646.78L927.77,646.78L927.77,722.6C927.77,731.377 934.993,738.6 943.77,738.6L993.77,738.6C1002.55,738.6 1009.77,731.377 1009.77,722.6L1009.77,705.8C1021.46,705.8 1031.08,696.18 1031.08,684.49C1031.08,672.8 1021.46,663.18 1009.77,663.18C1009.77,663.18 1009.77,663.18 1009.77,663.18ZM1009.77,697.61L1009.77,671.38C1009.89,671.377 1010.01,671.375 1010.13,671.375C1017.33,671.375 1023.25,677.298 1023.25,684.495C1023.25,691.692 1017.33,697.615 1010.13,697.615C1010.01,697.615 1009.89,697.613 1009.77,697.61Z" style="fill:url(#_Linear2);fill-rule:nonzero;"/>
    </g>
    <g transform="matrix(1,0,0,1,-114.28,-119)">
        <path d="M1007.14,665.74C996.465,665.74 987.68,674.525 987.68,685.2C987.68,695.875 996.465,704.66 1007.14,704.66C1017.82,704.66 1026.6,695.875 1026.6,685.2C1026.6,674.525 1017.82,665.74 1007.14,665.74ZM1007.14,697.17C1000.56,697.17 995.14,691.753 995.14,685.17C995.14,678.587 1000.56,673.17 1007.14,673.17C1013.72,673.17 1019.14,678.587 1019.14,685.17C1019.14,685.173 1019.14,685.177 1019.14,685.18C1019.14,691.763 1013.72,697.18 1007.14,697.18C1007.14,697.18 1007.14,697.18 1007.14,697.18L1007.14,697.17Z" style="fill:white;fill-rule:nonzero;"/>
    </g>
    <g transform="matrix(1,0,0,1,-114.28,-119)">
        <path d="M1007.14,665.74C996.465,665.74 987.68,674.525 987.68,685.2C987.68,695.875 996.465,704.66 1007.14,704.66C1017.82,704.66 1026.6,695.875 1026.6,685.2C1026.6,674.525 1017.82,665.74 1007.14,665.74ZM1007.14,697.17C1000.56,697.17 995.14,691.753 995.14,685.17C995.14,678.587 1000.56,673.17 1007.14,673.17C1013.72,673.17 1019.14,678.587 1019.14,685.17C1019.14,685.173 1019.14,685.177 1019.14,685.18C1019.14,691.763 1013.72,697.18 1007.14,697.18C1007.14,697.18 1007.14,697.18 1007.14,697.18L1007.14,697.17Z" style="fill-opacity:0.1;fill-rule:nonzero;"/>
    </g>
    <path d="M818,531.78L892.84,531.78L892.84,605.85C892.84,611.199 888.439,615.6 883.09,615.6L827.77,615.6C822.421,615.6 818.02,611.199 818.02,605.85L818.02,531.78L818,531.78Z" style="fill:white;fill-rule:nonzero;"/>
    <rect x="0" y="615.6" width="971.44" height="32.93" style="fill:rgb(224,224,224);"/>
    <g transform="matrix(1,0,0,1,-114.28,-119)">
        <path d="M753.25,514.26C742.84,476.47 683.81,448.87 639.4,442.75C639.4,442.47 639.4,442.19 639.4,441.91L639.4,409.57L639.54,409.57L639.54,408.3C671.451,396.428 696.183,370.504 706.54,338.07C709.285,333.106 711.675,327.953 713.69,322.65C718.43,320.92 722.01,313.11 722.01,303.71C722.027,300.495 721.576,297.295 720.67,294.21C721.252,289.425 721.55,284.61 721.56,279.79C721.596,245.733 707.153,213.217 681.86,190.41C682.233,188.474 682.361,186.498 682.24,184.53C681.24,169 664.65,158.45 649.11,157.75C657.477,148.258 659.636,134.736 654.64,123.11C644.73,137.55 624.38,139.11 606.87,139.2C614.43,136.27 617.87,125.8 613.43,118.99C595.13,143.52 559.43,148.07 537.67,169.58C532.927,174.287 528.952,179.71 525.89,185.65C497.248,208.467 480.544,243.161 480.57,279.78C480.579,284.556 480.87,289.328 481.44,294.07C480.507,297.194 480.042,300.439 480.06,303.7C480.06,313.14 483.67,320.98 488.45,322.7C490.473,328.021 492.872,333.19 495.63,338.17C505.947,370.42 530.484,396.232 562.17,408.17L562.17,442.75C517.59,448.75 458.09,476.58 447.77,514.67C438.86,547.57 429.35,583.67 424.61,604.91C465.18,633.42 550.3,650.15 603.61,650.15C654.3,650.15 737.14,635.04 776.52,609.09C772.36,585.73 762.55,548 753.25,514.26Z" style="fill:url(#_Linear3);fill-rule:nonzero;"/>
    </g>
    <g transform="matrix(1,0,0,1,-114.28,-119)">
        <path d="M603.61,640.72C652.51,640.72 732.42,626.15 770.41,601.11C766.3,578.63 756.83,542.24 747.86,509.68C736.44,468.21 664.33,439.46 621.32,439.46L579.87,439.46C536.72,439.46 464.52,468.37 453.24,510.02C444.64,541.76 435.47,576.61 430.9,597.07C470,624.58 552.15,640.72 603.61,640.72Z" style="fill:white;fill-rule:nonzero;"/>
    </g>
    <circle cx="486.81" cy="164.5" r="116.24" style="fill:rgb(114,53,28);"/>
    <path d="M449.29,261.31L523.77,261.31L523.77,320.89C523.77,341.319 506.959,358.13 486.53,358.13C466.101,358.13 449.29,341.319 449.29,320.89L449.29,261.31Z" style="fill-opacity:0.1;fill-rule:nonzero;"/>
    <path d="M460,258.55L513.11,258.55C518.969,258.55 523.79,263.371 523.79,269.23L523.79,318.13C523.79,338.559 506.979,355.37 486.55,355.37C466.121,355.37 449.31,338.559 449.31,318.13L449.31,269.23C449.31,269.23 449.31,269.23 449.31,269.23C449.31,263.371 454.131,258.55 459.99,258.55C459.993,258.55 459.997,258.55 460,258.55Z" style="fill:rgb(255,209,178);fill-rule:nonzero;"/>
    <g transform="matrix(1,0,0,1,-114.28,-119)">
        <path d="M563.71,408.43C587.707,417.398 614.142,417.473 638.19,408.64L638.19,399.49L563.71,399.49L563.71,408.43Z" style="fill-opacity:0.1;fill-rule:nonzero;"/>
    </g>
    <circle cx="486.81" cy="187.67" r="106.75" style="fill:rgb(255,209,178);"/>
    <g transform="matrix(1,0,0,1,-114.28,-119)">
        <path d="M525,209.56C525,209.56 570,300.88 696.9,247.83L667.4,201.51L615,182.71L525,209.56Z" style="fill-opacity:0.1;fill-rule:nonzero;"/>
    </g>
    <g transform="matrix(1,0,0,1,-114.28,-119)">
        <path d="M525,208.22C525,208.22 570,299.54 696.9,246.49L667.4,200.16L615,181.36L525,208.22Z" style="fill:rgb(114,53,28);fill-rule:nonzero;"/>
    </g>
    <g transform="matrix(1,0,0,1,-114.28,-119)">
        <path d="M524.65,202.05C527.684,192.66 532.928,184.134 539.94,177.19C560.94,156.43 595.36,152.05 613.02,128.38C617.26,134.95 614.02,145.05 606.69,147.87C623.58,147.76 643.21,146.28 652.77,132.35C657.586,143.564 655.501,156.606 647.43,165.76C662.43,166.44 678.43,176.62 679.43,191.59C680.08,201.59 673.82,211.02 665.62,216.74C657.42,222.46 647.5,225.09 637.73,227.24C609.19,233.54 506,259.88 524.65,202.05Z" style="fill:rgb(114,53,28);fill-rule:nonzero;"/>
    </g>
    <g transform="matrix(1,0,0,1,-114.28,-119)">
        <path d="M707.84,307.6L705,307.6L649.94,356.6C596.94,331.75 557.94,356.6 557.94,356.6L500.19,309.6L494.37,310.33C495.94,367.769 543.62,414.163 601.08,414.163C659.578,414.163 707.738,366.078 707.83,307.58L707.84,307.6ZM600.92,375.42C580.15,375.42 563.32,371.21 563.32,366.02C563.32,360.83 580.16,356.62 600.92,356.62C621.68,356.62 638.52,360.83 638.52,366.02C638.52,371.21 621.69,375.42 600.92,375.42Z" style="fill:rgb(114,53,28);fill-rule:nonzero;"/>
    </g>
    <ellipse cx="380.01" cy="187.57" rx="9.93" ry="18.62" style="fill:rgb(255,209,178);"/>
    <ellipse cx="593.55" cy="187.57" rx="9.93" ry="18.62" style="fill:rgb(255,209,178);"/>
    <path d="M692.28,392.2C692.28,384.197 685.783,377.7 677.78,377.7L293.66,377.7C285.657,377.7 279.16,384.197 279.16,392.2L279.16,601.09C279.16,609.093 285.657,615.59 293.66,615.59L677.78,615.59C685.783,615.59 692.28,609.093 692.28,601.09L692.28,392.2Z" style="fill:url(#_Linear4);"/>
    <path d="M684.8,408.93C684.8,394.117 672.773,382.09 657.96,382.09L313.48,382.09C298.667,382.09 286.64,394.117 286.64,408.93L286.64,588.75C286.64,603.563 298.667,615.59 313.48,615.59L657.96,615.59C672.773,615.59 684.8,603.563 684.8,588.75L684.8,408.93Z" style="fill:rgb(83,84,97);"/>
    <circle cx="485.72" cy="498.85" r="13.47" style="fill:white;"/>
    <rect x="41.16" y="648.53" width="889.11" height="13.47" style="fill:rgb(224,224,224);"/>
    <rect x="41.16" y="648.53" width="889.11" height="4.49" style="fill-opacity:0.1;"/>
    <g transform="matrix(1,0,0,1,-114.28,-119)">
        <path d="M993.67,650.78L993.67,720C993.67,728.004 987.084,734.59 979.08,734.59L986.56,734.59C994.564,734.59 1001.15,728.004 1001.15,720L1001.15,650.78L993.67,650.78Z" style="fill-opacity:0.1;fill-rule:nonzero;"/>
    </g>
    <g transform="matrix(1,0,0,1,-114.28,-119)">
        <path d="M947.06,595C945.8,595.22 944.37,595.56 943.75,596.68C942.75,598.46 944.55,600.47 946.17,601.68C949.17,603.94 952.33,606.16 954.37,609.31C956.41,612.46 957.05,616.86 954.82,619.89C951.91,623.84 944.97,624.68 944.3,629.54C943.87,632.66 946.56,635.32 949.3,636.88C956.04,640.74 964.73,641.77 969.62,647.81C971.62,643.66 976.16,641.26 980.62,640.23C985.08,639.2 989.8,639.28 994.37,638.59C995.84,638.37 997.5,637.92 998.16,636.59C999.44,634 995.8,630.89 997.05,628.29C998.05,626.29 1000.81,626.46 1002.86,625.67C1006.2,624.38 1007.57,620.08 1006.63,616.67C1005.69,613.26 1003.01,610.52 1000.19,608.31C992.61,602.31 983.49,598.85 974.26,596.31C969.97,595.14 964.93,593.31 960.48,593.12C956.23,592.91 951.32,594.25 947.06,595Z" style="fill:rgb(238,238,238);fill-rule:nonzero;"/>
    </g>
    <defs>
        <linearGradient id="_Linear1" x1="0" y1="0" x2="1" y2="0" gradientUnits="userSpaceOnUse" gradientTransform="matrix(121.46,0,0,121.46,178.28,633.99)"><stop offset="0" style="stop-color:rgb(128,128,128);stop-opacity:0.172941"/><stop offset="0.54" style="stop-color:rgb(128,128,128);stop-opacity:0.0823529"/><stop offset="1" style="stop-color:rgb(128,128,128);stop-opacity:0.0686275"/></linearGradient>
        <linearGradient id="_Linear2" x1="0" y1="0" x2="1" y2="0" gradientUnits="userSpaceOnUse" gradientTransform="matrix(5.62174e-15,-91.81,91.81,5.62174e-15,979.45,738.59)"><stop offset="0" style="stop-color:rgb(128,128,128);stop-opacity:0.172941"/><stop offset="0.54" style="stop-color:rgb(128,128,128);stop-opacity:0.0823529"/><stop offset="1" style="stop-color:rgb(128,128,128);stop-opacity:0.0686275"/></linearGradient>
        <linearGradient id="_Linear3" x1="0" y1="0" x2="1" y2="0" gradientUnits="userSpaceOnUse" gradientTransform="matrix(3.25211e-14,-531.11,531.11,3.25211e-14,600.65,650.11)"><stop offset="0" style="stop-color:rgb(128,128,128);stop-opacity:0.172941"/><stop offset="0.54" style="stop-color:rgb(128,128,128);stop-opacity:0.0823529"/><stop offset="1" style="stop-color:rgb(128,128,128);stop-opacity:0.0686275"/></linearGradient>
        <linearGradient id="_Linear4" x1="0" y1="0" x2="1" y2="0" gradientUnits="userSpaceOnUse" gradientTransform="matrix(1.45672e-14,-237.9,237.9,1.45672e-14,485.72,615.6)"><stop offset="0" style="stop-color:rgb(128,128,128);stop-opacity:0.172941"/><stop offset="0.54" style="stop-color:rgb(128,128,128);stop-opacity:0.0823529"/><stop offset="1" style="stop-color:rgb(128,128,128);stop-opacity:0.0686275"/></linearGradient>
    </defs>
</svg>
